<?xml version="1.0" encoding="utf-8"?>
<!-- Svg Vector Icons : http://www.onlinewebfonts.com/icon -->
<!DOCTYPE svg PUBLIC "-//W3C//DTD SVG 1.1//EN" "http://www.w3.org/Graphics/SVG/1.1/DTD/svg11.dtd">
<svg version="1.1" xmlns="http://www.w3.org/2000/svg" xmlns:xlink="http://www.w3.org/1999/xlink" x="0px" y="0px" viewBox="0 0 1000 1000" enable-background="new 0 0 1000 1000" xml:space="preserve">
<metadata> Svg Vector Icons : http://www.onlinewebfonts.com/icon </metadata>
<g><path d="M500,10C229.1,10,10,229.1,10,500C9.3,770.2,229.1,990,500,990c270.9,0,490-219.8,490-490C990,229.1,770.2,10,500,10z M213.9,431.5c0-50.4,41.1-90.8,90.8-90.8s90.1,41.1,90.1,90.8c0,50.4-40.4,90.8-90.1,90.8S214.6,481.3,213.9,431.5z M678.2,699.3c0,18.2-14.7,32.9-32.9,32.9H353.8c-18.2,0-32.9-14.7-32.9-32.9V696c0-18.2,14.7-32.9,32.9-32.9h291.5c18.2,0,32.9,14.7,32.9,32.9V699.3z M694.6,522.3c-49.7,0-90.1-41.1-90.8-90.8c0-50.4,40.4-90.8,90.8-90.8c50.4,0,90.8,41.1,90.8,90.8C785.4,482,744.3,522.3,694.6,522.3z"/></g>
</svg>